# xmcd
#
# Track frame offsets:
# 150
# 13365
# 30360
# 53332
# 70655
# 84662
# 104000
# 117915
# 133847
# 153780
# 166585
# 179545
#
# Disc length: 2637 seconds
#
#
# Revision: 0
# Processed by: cddbd v1.4PL0 Copyright (c) Steve Scherf et al.
# Submitted via: FreeRIP 2.40 
#
DISCID=920a4b0c
DTITLE=J.J. Cale - Closer To You
DYEAR=1994
DGENRE=Blues
TTITLE0=Long Way Home
TTITLE1=Sho-Biz Blues
TTITLE2=Slower Baby
TTITLE3=Devil's Nurse
TTITLE4=Like You Used To
TTITLE5=Borrowed Time
TTITLE6=Rose In The Garden
TTITLE7=Brown Dirt
TTITLE8=Hard Love
TTITLE9=Ain't Love Funny
TTITLE10=Closer To You
TTITLE11=Steve's Song
EXTD=
EXTT0=
EXTT1=
EXTT2=
EXTT3=
EXTT4=
EXTT5=
EXTT6=
EXTT7=
EXTT8=
EXTT9=
EXTT10=
EXTT11=
PLAYORDER=
